<?xml version="1.0" encoding="utf-8" standalone="no"?>
<!DOCTYPE svg PUBLIC "-//W3C//DTD SVG 1.1//EN"
  "http://www.w3.org/Graphics/SVG/1.1/DTD/svg11.dtd">
<svg xmlns:xlink="http://www.w3.org/1999/xlink" width="72pt" height="72pt" viewBox="0 0 72 72" xmlns="http://www.w3.org/2000/svg" version="1.1">
 <metadata>
  <rdf:RDF xmlns:dc="http://purl.org/dc/elements/1.1/" xmlns:cc="http://creativecommons.org/ns#" xmlns:rdf="http://www.w3.org/1999/02/22-rdf-syntax-ns#">
   <cc:Work>
    <dc:type rdf:resource="http://purl.org/dc/dcmitype/StillImage"/>
    <dc:date>2023-02-01T13:06:47.114504</dc:date>
    <dc:format>image/svg+xml</dc:format>
    <dc:creator>
     <cc:Agent>
      <dc:title>Matplotlib v3.6.2, https://matplotlib.org/</dc:title>
     </cc:Agent>
    </dc:creator>
   </cc:Work>
  </rdf:RDF>
 </metadata>
 <defs>
  <style type="text/css">*{stroke-linejoin: round; stroke-linecap: butt}</style>
 </defs>
 <g id="figure_1">
  <g id="patch_1">
   <path d="M 0 72 
L 72 72 
L 72 0 
L 0 0 
L 0 72 
z
" style="fill: none"/>
  </g>
  <g id="axes_1">
   <g id="patch_2">
    <path d="M 0 72 
L 72 72 
L 72 0 
L 0 0 
z
" clip-path="url(#p9599616848)" style="fill: #f78076; stroke: #f78076; stroke-linejoin: miter"/>
   </g>
   <g id="patch_3">
    <path d="M 36 57.6 
C 41.728387 57.6 47.222925 55.324088 51.273506 51.273506 
C 55.324088 47.222925 57.6 41.728387 57.6 36 
C 57.6 30.271613 55.324088 24.777075 51.273506 20.726494 
C 47.222925 16.675912 41.728387 14.4 36 14.4 
C 30.271613 14.4 24.777075 16.675912 20.726494 20.726494 
C 16.675912 24.777075 14.4 30.271613 14.4 36 
C 14.4 41.728387 16.675912 47.222925 20.726494 51.273506 
C 24.777075 55.324088 30.271613 57.6 36 57.6 
z
" clip-path="url(#p9599616848)" style="fill: #ffde59; stroke: #ffde59; stroke-linejoin: miter"/>
   </g>
  </g>
 </g>
 <defs>
  <clipPath id="p9599616848">
   <rect x="0" y="0" width="72" height="72"/>
  </clipPath>
 </defs>
</svg>
