<?xml version="1.0" encoding="utf-8" standalone="no"?>
<!DOCTYPE svg PUBLIC "-//W3C//DTD SVG 1.1//EN"
  "http://www.w3.org/Graphics/SVG/1.1/DTD/svg11.dtd">
<svg xmlns:xlink="http://www.w3.org/1999/xlink" width="158.4pt" height="158.4pt" viewBox="0 0 158.4 158.4" xmlns="http://www.w3.org/2000/svg" version="1.1">
 <metadata>
  <rdf:RDF xmlns:dc="http://purl.org/dc/elements/1.1/" xmlns:cc="http://creativecommons.org/ns#" xmlns:rdf="http://www.w3.org/1999/02/22-rdf-syntax-ns#">
   <cc:Work>
    <dc:type rdf:resource="http://purl.org/dc/dcmitype/StillImage"/>
    <dc:date>2023-02-10T09:29:23.642623</dc:date>
    <dc:format>image/svg+xml</dc:format>
    <dc:creator>
     <cc:Agent>
      <dc:title>Matplotlib v3.6.2, https://matplotlib.org/</dc:title>
     </cc:Agent>
    </dc:creator>
   </cc:Work>
  </rdf:RDF>
 </metadata>
 <defs>
  <style type="text/css">*{stroke-linejoin: round; stroke-linecap: butt}</style>
 </defs>
 <g id="figure_1">
  <g id="patch_1">
   <path d="M 0 158.4 
L 158.4 158.4 
L 158.4 0 
L 0 0 
z
" style="fill: #ffffff"/>
  </g>
  <g id="axes_1">
   <g id="patch_2">
    <path d="M 7.2 151.2 
L 151.2 151.2 
L 151.2 7.2 
L 7.2 7.2 
z
" style="fill: #ffffff"/>
   </g>
   <g id="PathCollection_1">
    <path d="M 21.6 25.702845 
C 22.688087 25.702845 23.731755 25.270543 24.501149 24.501149 
C 25.270543 23.731755 25.702845 22.688087 25.702845 21.6 
C 25.702845 20.511913 25.270543 19.468245 24.501149 18.698851 
C 23.731755 17.929457 22.688087 17.497155 21.6 17.497155 
C 20.511913 17.497155 19.468245 17.929457 18.698851 18.698851 
C 17.929457 19.468245 17.497155 20.511913 17.497155 21.6 
C 17.497155 22.688087 17.929457 23.731755 18.698851 24.501149 
C 19.468245 25.270543 20.511913 25.702845 21.6 25.702845 
z
" clip-path="url(#p84a87d6409)" style="fill: #ead4c8; stroke: #ead4c8"/>
    <path d="M 50.4 22.1 
C 50.532602 22.1 50.65979 22.047317 50.753553 21.953553 
C 50.847317 21.85979 50.9 21.732602 50.9 21.6 
C 50.9 21.467398 50.847317 21.34021 50.753553 21.246447 
C 50.65979 21.152683 50.532602 21.1 50.4 21.1 
C 50.267398 21.1 50.14021 21.152683 50.046447 21.246447 
C 49.952683 21.34021 49.9 21.467398 49.9 21.6 
C 49.9 21.732602 49.952683 21.85979 50.046447 21.953553 
C 50.14021 22.047317 50.267398 22.1 50.4 22.1 
z
" clip-path="url(#p84a87d6409)" style="fill: #3b4cc0; stroke: #3b4cc0"/>
    <path d="M 79.2 25.702845 
C 80.288087 25.702845 81.331755 25.270543 82.101149 24.501149 
C 82.870543 23.731755 83.302845 22.688087 83.302845 21.6 
C 83.302845 20.511913 82.870543 19.468245 82.101149 18.698851 
C 81.331755 17.929457 80.288087 17.497155 79.2 17.497155 
C 78.111913 17.497155 77.068245 17.929457 76.298851 18.698851 
C 75.529457 19.468245 75.097155 20.511913 75.097155 21.6 
C 75.097155 22.688087 75.529457 23.731755 76.298851 24.501149 
C 77.068245 25.270543 78.111913 25.702845 79.2 25.702845 
z
" clip-path="url(#p84a87d6409)" style="fill: #aac7fd; stroke: #aac7fd"/>
    <path d="M 108 26.880993 
C 109.400536 26.880993 110.743898 26.324554 111.734226 25.334226 
C 112.724554 24.343898 113.280993 23.000536 113.280993 21.6 
C 113.280993 20.199464 112.724554 18.856102 111.734226 17.865774 
C 110.743898 16.875446 109.400536 16.319007 108 16.319007 
C 106.599464 16.319007 105.256102 16.875446 104.265774 17.865774 
C 103.275446 18.856102 102.719007 20.199464 102.719007 21.6 
C 102.719007 23.000536 103.275446 24.343898 104.265774 25.334226 
C 105.256102 26.324554 106.599464 26.880993 108 26.880993 
z
" clip-path="url(#p84a87d6409)" style="fill: #aac7fd; stroke: #aac7fd"/>
    <path d="M 136.8 22.1 
C 136.932602 22.1 137.05979 22.047317 137.153553 21.953553 
C 137.247317 21.85979 137.3 21.732602 137.3 21.6 
C 137.3 21.467398 137.247317 21.34021 137.153553 21.246447 
C 137.05979 21.152683 136.932602 21.1 136.8 21.1 
C 136.667398 21.1 136.54021 21.152683 136.446447 21.246447 
C 136.352683 21.34021 136.3 21.467398 136.3 21.6 
C 136.3 21.732602 136.352683 21.85979 136.446447 21.953553 
C 136.54021 22.047317 136.667398 22.1 136.8 22.1 
z
" clip-path="url(#p84a87d6409)" style="fill: #f18d6f; stroke: #f18d6f"/>
    <path d="M 21.6 53.762374 
C 22.491712 53.762374 23.347022 53.408093 23.977557 52.777557 
C 24.608093 52.147022 24.962374 51.291712 24.962374 50.4 
C 24.962374 49.508288 24.608093 48.652978 23.977557 48.022443 
C 23.347022 47.391907 22.491712 47.037626 21.6 47.037626 
C 20.708288 47.037626 19.852978 47.391907 19.222443 48.022443 
C 18.591907 48.652978 18.237626 49.508288 18.237626 50.4 
C 18.237626 51.291712 18.591907 52.147022 19.222443 52.777557 
C 19.852978 53.408093 20.708288 53.762374 21.6 53.762374 
z
" clip-path="url(#p84a87d6409)" style="fill: #b40426; stroke: #b40426"/>
    <path d="M 50.4 54.502845 
C 51.488087 54.502845 52.531755 54.070543 53.301149 53.301149 
C 54.070543 52.531755 54.502845 51.488087 54.502845 50.4 
C 54.502845 49.311913 54.070543 48.268245 53.301149 47.498851 
C 52.531755 46.729457 51.488087 46.297155 50.4 46.297155 
C 49.311913 46.297155 48.268245 46.729457 47.498851 47.498851 
C 46.729457 48.268245 46.297155 49.311913 46.297155 50.4 
C 46.297155 51.488087 46.729457 52.531755 47.498851 53.301149 
C 48.268245 54.070543 49.311913 54.502845 50.4 54.502845 
z
" clip-path="url(#p84a87d6409)" style="fill: #aac7fd; stroke: #aac7fd"/>
    <path d="M 79.2 57.06875 
C 80.968573 57.06875 82.664948 56.366088 83.915518 55.115518 
C 85.166088 53.864948 85.86875 52.168573 85.86875 50.4 
C 85.86875 48.631427 85.166088 46.935052 83.915518 45.684482 
C 82.664948 44.433912 80.968573 43.73125 79.2 43.73125 
C 77.431427 43.73125 75.735052 44.433912 74.484482 45.684482 
C 73.233912 46.935052 72.53125 48.631427 72.53125 50.4 
C 72.53125 52.168573 73.233912 53.864948 74.484482 55.115518 
C 75.735052 56.366088 77.431427 57.06875 79.2 57.06875 
z
" clip-path="url(#p84a87d6409)" style="fill: #ead4c8; stroke: #ead4c8"/>
    <path d="M 108 52.803701 
C 108.637469 52.803701 109.248915 52.550432 109.699673 52.099673 
C 110.150432 51.648915 110.403701 51.037469 110.403701 50.4 
C 110.403701 49.762531 110.150432 49.151085 109.699673 48.700327 
C 109.248915 48.249568 108.637469 47.996299 108 47.996299 
C 107.362531 47.996299 106.751085 48.249568 106.300327 48.700327 
C 105.849568 49.151085 105.596299 49.762531 105.596299 50.4 
C 105.596299 51.037469 105.849568 51.648915 106.300327 52.099673 
C 106.751085 52.550432 107.362531 52.803701 108 52.803701 
z
" clip-path="url(#p84a87d6409)" style="fill: #82a6fb; stroke: #82a6fb"/>
    <path d="M 136.8 54.502845 
C 137.888087 54.502845 138.931755 54.070543 139.701149 53.301149 
C 140.470543 52.531755 140.902845 51.488087 140.902845 50.4 
C 140.902845 49.311913 140.470543 48.268245 139.701149 47.498851 
C 138.931755 46.729457 137.888087 46.297155 136.8 46.297155 
C 135.711913 46.297155 134.668245 46.729457 133.898851 47.498851 
C 133.129457 48.268245 132.697155 49.311913 132.697155 50.4 
C 132.697155 51.488087 133.129457 52.531755 133.898851 53.301149 
C 134.668245 54.070543 135.711913 54.502845 136.8 54.502845 
z
" clip-path="url(#p84a87d6409)" style="fill: #cdd9ec; stroke: #cdd9ec"/>
    <path d="M 21.6 83.302845 
C 22.688087 83.302845 23.731755 82.870543 24.501149 82.101149 
C 25.270543 81.331755 25.702845 80.288087 25.702845 79.2 
C 25.702845 78.111913 25.270543 77.068245 24.501149 76.298851 
C 23.731755 75.529457 22.688087 75.097155 21.6 75.097155 
C 20.511913 75.097155 19.468245 75.529457 18.698851 76.298851 
C 17.929457 77.068245 17.497155 78.111913 17.497155 79.2 
C 17.497155 80.288087 17.929457 81.331755 18.698851 82.101149 
C 19.468245 82.870543 20.511913 83.302845 21.6 83.302845 
z
" clip-path="url(#p84a87d6409)" style="fill: #f18d6f; stroke: #f18d6f"/>
    <path d="M 50.4 83.302845 
C 51.488087 83.302845 52.531755 82.870543 53.301149 82.101149 
C 54.070543 81.331755 54.502845 80.288087 54.502845 79.2 
C 54.502845 78.111913 54.070543 77.068245 53.301149 76.298851 
C 52.531755 75.529457 51.488087 75.097155 50.4 75.097155 
C 49.311913 75.097155 48.268245 75.529457 47.498851 76.298851 
C 46.729457 77.068245 46.297155 78.111913 46.297155 79.2 
C 46.297155 80.288087 46.729457 81.331755 47.498851 82.101149 
C 48.268245 82.870543 49.311913 83.302845 50.4 83.302845 
z
" clip-path="url(#p84a87d6409)" style="fill: #f7b89c; stroke: #f7b89c"/>
    <path d="M 79.2 85.440548 
C 80.855013 85.440548 82.442463 84.783005 83.612734 83.612734 
C 84.783005 82.442463 85.440548 80.855013 85.440548 79.2 
C 85.440548 77.544987 84.783005 75.957537 83.612734 74.787266 
C 82.442463 73.616995 80.855013 72.959452 79.2 72.959452 
C 77.544987 72.959452 75.957537 73.616995 74.787266 74.787266 
C 73.616995 75.957537 72.959452 77.544987 72.959452 79.2 
C 72.959452 80.855013 73.616995 82.442463 74.787266 83.612734 
C 75.957537 84.783005 77.544987 85.440548 79.2 85.440548 
z
" clip-path="url(#p84a87d6409)" style="fill: #d95847; stroke: #d95847"/>
    <path d="M 108 79.7 
C 108.132602 79.7 108.25979 79.647317 108.353553 79.553553 
C 108.447317 79.45979 108.5 79.332602 108.5 79.2 
C 108.5 79.067398 108.447317 78.94021 108.353553 78.846447 
C 108.25979 78.752683 108.132602 78.7 108 78.7 
C 107.867398 78.7 107.74021 78.752683 107.646447 78.846447 
C 107.552683 78.94021 107.5 79.067398 107.5 79.2 
C 107.5 79.332602 107.552683 79.45979 107.646447 79.553553 
C 107.74021 79.647317 107.867398 79.7 108 79.7 
z
" clip-path="url(#p84a87d6409)" style="fill: #d95847; stroke: #d95847"/>
    <path d="M 136.8 81.603701 
C 137.437469 81.603701 138.048915 81.350432 138.499673 80.899673 
C 138.950432 80.448915 139.203701 79.837469 139.203701 79.2 
C 139.203701 78.562531 138.950432 77.951085 138.499673 77.500327 
C 138.048915 77.049568 137.437469 76.796299 136.8 76.796299 
C 136.162531 76.796299 135.551085 77.049568 135.100327 77.500327 
C 134.649568 77.951085 134.396299 78.562531 134.396299 79.2 
C 134.396299 79.837469 134.649568 80.448915 135.100327 80.899673 
C 135.551085 81.350432 136.162531 81.603701 136.8 81.603701 
z
" clip-path="url(#p84a87d6409)" style="fill: #5d7ce6; stroke: #5d7ce6"/>
    <path d="M 21.6 115.071068 
C 23.475269 115.071068 25.273985 114.326016 26.6 113 
C 27.926016 111.673985 28.671068 109.875269 28.671068 108 
C 28.671068 106.124731 27.926016 104.326016 26.6 103 
C 25.273985 101.673985 23.475269 100.928932 21.6 100.928932 
C 19.724731 100.928932 17.926016 101.673985 16.6 103 
C 15.273985 104.326016 14.528932 106.124731 14.528932 108 
C 14.528932 109.875269 15.273985 111.673985 16.6 113 
C 17.926016 114.326016 19.724731 115.071068 21.6 115.071068 
z
" clip-path="url(#p84a87d6409)" style="fill: #f7b89c; stroke: #f7b89c"/>
    <path d="M 50.4 115.071068 
C 52.275269 115.071068 54.073985 114.326016 55.4 113 
C 56.726016 111.673985 57.471068 109.875269 57.471068 108 
C 57.471068 106.124731 56.726016 104.326016 55.4 103 
C 54.073985 101.673985 52.275269 100.928932 50.4 100.928932 
C 48.524731 100.928932 46.726016 101.673985 45.4 103 
C 44.073985 104.326016 43.328932 106.124731 43.328932 108 
C 43.328932 109.875269 44.073985 111.673985 45.4 113 
C 46.726016 114.326016 48.524731 115.071068 50.4 115.071068 
z
" clip-path="url(#p84a87d6409)" style="fill: #f18d6f; stroke: #f18d6f"/>
    <path d="M 79.2 108.5 
C 79.332602 108.5 79.45979 108.447317 79.553553 108.353553 
C 79.647317 108.25979 79.7 108.132602 79.7 108 
C 79.7 107.867398 79.647317 107.74021 79.553553 107.646447 
C 79.45979 107.552683 79.332602 107.5 79.2 107.5 
C 79.067398 107.5 78.94021 107.552683 78.846447 107.646447 
C 78.752683 107.74021 78.7 107.867398 78.7 108 
C 78.7 108.132602 78.752683 108.25979 78.846447 108.353553 
C 78.94021 108.447317 79.067398 108.5 79.2 108.5 
z
" clip-path="url(#p84a87d6409)" style="fill: #f18d6f; stroke: #f18d6f"/>
    <path d="M 108 112.728754 
C 109.25408 112.728754 110.456965 112.230502 111.343734 111.343734 
C 112.230502 110.456965 112.728754 109.25408 112.728754 108 
C 112.728754 106.74592 112.230502 105.543035 111.343734 104.656266 
C 110.456965 103.769498 109.25408 103.271246 108 103.271246 
C 106.74592 103.271246 105.543035 103.769498 104.656266 104.656266 
C 103.769498 105.543035 103.271246 106.74592 103.271246 108 
C 103.271246 109.25408 103.769498 110.456965 104.656266 111.343734 
C 105.543035 112.230502 106.74592 112.728754 108 112.728754 
z
" clip-path="url(#p84a87d6409)" style="fill: #d95847; stroke: #d95847"/>
    <path d="M 136.8 114.240548 
C 138.455013 114.240548 140.042463 113.583005 141.212734 112.412734 
C 142.383005 111.242463 143.040548 109.655013 143.040548 108 
C 143.040548 106.344987 142.383005 104.757537 141.212734 103.587266 
C 140.042463 102.416995 138.455013 101.759452 136.8 101.759452 
C 135.144987 101.759452 133.557537 102.416995 132.387266 103.587266 
C 131.216995 104.757537 130.559452 106.344987 130.559452 108 
C 130.559452 109.655013 131.216995 111.242463 132.387266 112.412734 
C 133.557537 113.583005 135.144987 114.240548 136.8 114.240548 
z
" clip-path="url(#p84a87d6409)" style="fill: #5d7ce6; stroke: #5d7ce6"/>
    <path d="M 21.6 140.902845 
C 22.688087 140.902845 23.731755 140.470543 24.501149 139.701149 
C 25.270543 138.931755 25.702845 137.888087 25.702845 136.8 
C 25.702845 135.711913 25.270543 134.668245 24.501149 133.898851 
C 23.731755 133.129457 22.688087 132.697155 21.6 132.697155 
C 20.511913 132.697155 19.468245 133.129457 18.698851 133.898851 
C 17.929457 134.668245 17.497155 135.711913 17.497155 136.8 
C 17.497155 137.888087 17.929457 138.931755 18.698851 139.701149 
C 19.468245 140.470543 20.511913 140.902845 21.6 140.902845 
z
" clip-path="url(#p84a87d6409)" style="fill: #ead4c8; stroke: #ead4c8"/>
    <path d="M 50.4 140.162374 
C 51.291712 140.162374 52.147022 139.808093 52.777557 139.177557 
C 53.408093 138.547022 53.762374 137.691712 53.762374 136.8 
C 53.762374 135.908288 53.408093 135.052978 52.777557 134.422443 
C 52.147022 133.791907 51.291712 133.437626 50.4 133.437626 
C 49.508288 133.437626 48.652978 133.791907 48.022443 134.422443 
C 47.391907 135.052978 47.037626 135.908288 47.037626 136.8 
C 47.037626 137.691712 47.391907 138.547022 48.022443 139.177557 
C 48.652978 139.808093 49.508288 140.162374 50.4 140.162374 
z
" clip-path="url(#p84a87d6409)" style="fill: #b40426; stroke: #b40426"/>
    <path d="M 79.2 143.040548 
C 80.855013 143.040548 82.442463 142.383005 83.612734 141.212734 
C 84.783005 140.042463 85.440548 138.455013 85.440548 136.8 
C 85.440548 135.144987 84.783005 133.557537 83.612734 132.387266 
C 82.442463 131.216995 80.855013 130.559452 79.2 130.559452 
C 77.544987 130.559452 75.957537 131.216995 74.787266 132.387266 
C 73.616995 133.557537 72.959452 135.144987 72.959452 136.8 
C 72.959452 138.455013 73.616995 140.042463 74.787266 141.212734 
C 75.957537 142.383005 77.544987 143.040548 79.2 143.040548 
z
" clip-path="url(#p84a87d6409)" style="fill: #d95847; stroke: #d95847"/>
    <path d="M 108 140.162374 
C 108.891712 140.162374 109.747022 139.808093 110.377557 139.177557 
C 111.008093 138.547022 111.362374 137.691712 111.362374 136.8 
C 111.362374 135.908288 111.008093 135.052978 110.377557 134.422443 
C 109.747022 133.791907 108.891712 133.437626 108 133.437626 
C 107.108288 133.437626 106.252978 133.791907 105.622443 134.422443 
C 104.991907 135.052978 104.637626 135.908288 104.637626 136.8 
C 104.637626 137.691712 104.991907 138.547022 105.622443 139.177557 
C 106.252978 139.808093 107.108288 140.162374 108 140.162374 
z
" clip-path="url(#p84a87d6409)" style="fill: #b40426; stroke: #b40426"/>
    <path d="M 136.8 137.3 
C 136.932602 137.3 137.05979 137.247317 137.153553 137.153553 
C 137.247317 137.05979 137.3 136.932602 137.3 136.8 
C 137.3 136.667398 137.247317 136.54021 137.153553 136.446447 
C 137.05979 136.352683 136.932602 136.3 136.8 136.3 
C 136.667398 136.3 136.54021 136.352683 136.446447 136.446447 
C 136.352683 136.54021 136.3 136.667398 136.3 136.8 
C 136.3 136.932602 136.352683 137.05979 136.446447 137.153553 
C 136.54021 137.247317 136.667398 137.3 136.8 137.3 
z
" clip-path="url(#p84a87d6409)" style="fill: #cdd9ec; stroke: #cdd9ec"/>
   </g>
   <g id="matplotlib.axis_1">
    <g id="xtick_1"/>
    <g id="xtick_2"/>
    <g id="xtick_3"/>
   </g>
   <g id="matplotlib.axis_2">
    <g id="ytick_1"/>
    <g id="ytick_2"/>
    <g id="ytick_3"/>
    <g id="ytick_4"/>
    <g id="ytick_5"/>
    <g id="ytick_6"/>
   </g>
   <g id="patch_3">
    <path d="M 7.2 151.2 
L 7.2 7.2 
" style="fill: none; stroke: #000000; stroke-width: 0.8; stroke-linejoin: miter; stroke-linecap: square"/>
   </g>
   <g id="patch_4">
    <path d="M 151.2 151.2 
L 151.2 7.2 
" style="fill: none; stroke: #000000; stroke-width: 0.8; stroke-linejoin: miter; stroke-linecap: square"/>
   </g>
   <g id="patch_5">
    <path d="M 7.2 151.2 
L 151.2 151.2 
" style="fill: none; stroke: #000000; stroke-width: 0.8; stroke-linejoin: miter; stroke-linecap: square"/>
   </g>
   <g id="patch_6">
    <path d="M 7.2 7.2 
L 151.2 7.2 
" style="fill: none; stroke: #000000; stroke-width: 0.8; stroke-linejoin: miter; stroke-linecap: square"/>
   </g>
  </g>
 </g>
 <defs>
  <clipPath id="p84a87d6409">
   <rect x="7.2" y="7.2" width="144" height="144"/>
  </clipPath>
 </defs>
</svg>
