<?xml version="1.0" encoding="utf-8" standalone="no"?>
<!DOCTYPE svg PUBLIC "-//W3C//DTD SVG 1.1//EN"
  "http://www.w3.org/Graphics/SVG/1.1/DTD/svg11.dtd">
<svg xmlns:xlink="http://www.w3.org/1999/xlink" width="432pt" height="144pt" viewBox="0 0 432 144" xmlns="http://www.w3.org/2000/svg" version="1.1">
 <metadata>
  <rdf:RDF xmlns:dc="http://purl.org/dc/elements/1.1/" xmlns:cc="http://creativecommons.org/ns#" xmlns:rdf="http://www.w3.org/1999/02/22-rdf-syntax-ns#">
   <cc:Work>
    <dc:type rdf:resource="http://purl.org/dc/dcmitype/StillImage"/>
    <dc:date>2023-02-01T13:14:44.774308</dc:date>
    <dc:format>image/svg+xml</dc:format>
    <dc:creator>
     <cc:Agent>
      <dc:title>Matplotlib v3.6.2, https://matplotlib.org/</dc:title>
     </cc:Agent>
    </dc:creator>
   </cc:Work>
  </rdf:RDF>
 </metadata>
 <defs>
  <style type="text/css">*{stroke-linejoin: round; stroke-linecap: butt}</style>
 </defs>
 <g id="figure_1">
  <g id="patch_1">
   <path d="M 0 144 
L 432 144 
L 432 0 
L 0 0 
L 0 144 
z
" style="fill: none"/>
  </g>
  <g id="axes_1">
   <g id="patch_2">
    <path d="M 54 66.394286 
L 101.828571 66.394286 
L 101.828571 18.565714 
L 54 18.565714 
z
" clip-path="url(#p8b3a726df0)" style="fill: #f78076; stroke: #f78076; stroke-linejoin: miter"/>
   </g>
   <g id="patch_3">
    <path d="M 77.914286 56.828571 
C 81.719571 56.828571 85.369515 55.316715 88.060258 52.625972 
C 90.751001 49.935229 92.262857 46.285286 92.262857 42.48 
C 92.262857 38.674714 90.751001 35.024771 88.060258 32.334028 
C 85.369515 29.643285 81.719571 28.131429 77.914286 28.131429 
C 74.109 28.131429 70.459057 29.643285 67.768314 32.334028 
C 65.07757 35.024771 63.565714 38.674714 63.565714 42.48 
C 63.565714 46.285286 65.07757 49.935229 67.768314 52.625972 
C 70.459057 55.316715 74.109 56.828571 77.914286 56.828571 
z
" clip-path="url(#p8b3a726df0)" style="fill: #ffde59; stroke: #ffde59; stroke-linejoin: miter"/>
   </g>
  </g>
  <g id="axes_2">
   <g id="patch_4">
    <path d="M 111.394286 66.394286 
L 159.222857 66.394286 
L 159.222857 18.565714 
L 111.394286 18.565714 
z
" clip-path="url(#p86ee10d764)" style="fill: #00b796; stroke: #00b796; stroke-linejoin: miter"/>
   </g>
   <g id="text_1">
    <!-- H -->
    <g style="fill: #ecf791" transform="translate(123.269118 52.888616) scale(0.35 -0.35)">
     <defs>
      <path id="Kanit-Bold-48" d="M 288 0 
L 288 4122 
L 1491 4122 
L 1491 2586 
L 2912 2586 
L 2912 4122 
L 4115 4122 
L 4115 0 
L 2912 0 
L 2912 1536 
L 1491 1536 
L 1491 0 
L 288 0 
z
" transform="scale(0.015625)"/>
     </defs>
     <use xlink:href="#Kanit-Bold-48"/>
    </g>
   </g>
  </g>
  <g id="axes_3">
   <g id="patch_5">
    <path d="M 168.788571 66.394286 
L 216.617143 66.394286 
L 216.617143 18.565714 
L 168.788571 18.565714 
z
" clip-path="url(#p052f9a2b79)" style="fill: #00b796; stroke: #00b796; stroke-linejoin: miter"/>
   </g>
   <g id="text_2">
    <!-- E -->
    <g style="fill: #ecf791" transform="translate(183.113404 52.888616) scale(0.35 -0.35)">
     <defs>
      <path id="Kanit-Bold-45" d="M 288 0 
L 288 4122 
L 3411 4122 
L 3411 3200 
L 1491 3200 
L 1491 2528 
L 3174 2528 
L 3174 1594 
L 1491 1594 
L 1491 922 
L 3411 922 
L 3411 0 
L 288 0 
z
" transform="scale(0.015625)"/>
     </defs>
     <use xlink:href="#Kanit-Bold-45"/>
    </g>
   </g>
  </g>
  <g id="axes_4">
   <g id="patch_6">
    <path d="M 226.182857 66.394286 
L 274.011429 66.394286 
L 274.011429 18.565714 
L 226.182857 18.565714 
z
" clip-path="url(#p1694f94e2f)" style="fill: #00b796; stroke: #00b796; stroke-linejoin: miter"/>
   </g>
   <g id="text_3">
    <!-- A -->
    <g style="fill: #ecf791" transform="translate(237.09519 52.888616) scale(0.35 -0.35)">
     <defs>
      <path id="Kanit-Bold-41" d="M 160 0 
L 1741 4122 
L 3014 4122 
L 4595 0 
L 3341 0 
L 2995 877 
L 1754 877 
L 1414 0 
L 160 0 
z
M 1914 1741 
L 2835 1741 
L 2374 2950 
L 1914 1741 
z
" transform="scale(0.015625)"/>
     </defs>
     <use xlink:href="#Kanit-Bold-41"/>
    </g>
   </g>
  </g>
  <g id="axes_5">
   <g id="patch_7">
    <path d="M 283.577143 66.394286 
L 331.405714 66.394286 
L 331.405714 18.565714 
L 283.577143 18.565714 
z
" clip-path="url(#p1af6384ac0)" style="fill: #00b796; stroke: #00b796; stroke-linejoin: miter"/>
   </g>
   <g id="text_4">
    <!-- T -->
    <g style="fill: #ecf791" transform="translate(297.691429 52.888616) scale(0.35 -0.35)">
     <defs>
      <path id="Kanit-Bold-54" d="M 1190 0 
L 1190 3226 
L 32 3226 
L 32 4122 
L 3552 4122 
L 3552 3226 
L 2394 3226 
L 2394 0 
L 1190 0 
z
" transform="scale(0.015625)"/>
     </defs>
     <use xlink:href="#Kanit-Bold-54"/>
    </g>
   </g>
  </g>
  <g id="axes_6">
   <g id="patch_8">
    <path d="M 340.971429 66.394286 
L 388.8 66.394286 
L 388.8 18.565714 
L 340.971429 18.565714 
z
" clip-path="url(#p03f4918547)" style="fill: #f78076; stroke: #f78076; stroke-linejoin: miter"/>
   </g>
   <g id="patch_9">
    <path d="M 345.754286 59.22 
L 351.493714 59.22 
L 351.493714 54.437143 
L 345.754286 54.437143 
z
" clip-path="url(#p03f4918547)" style="fill: #6ce5e8; stroke: #6ce5e8; stroke-linejoin: miter"/>
   </g>
   <g id="patch_10">
    <path d="M 351.493714 59.22 
L 361.059429 59.22 
L 361.059429 54.437143 
L 351.493714 54.437143 
z
" clip-path="url(#p03f4918547)" style="fill: #41b8d5; stroke: #41b8d5; stroke-linejoin: miter"/>
   </g>
   <g id="patch_11">
    <path d="M 361.059429 59.22 
L 365.842286 59.22 
L 365.842286 54.437143 
L 361.059429 54.437143 
z
" clip-path="url(#p03f4918547)" style="fill: #2d8bba; stroke: #2d8bba; stroke-linejoin: miter"/>
   </g>
   <g id="patch_12">
    <path d="M 345.754286 49.654286 
L 354.363429 49.654286 
L 354.363429 44.871429 
L 345.754286 44.871429 
z
" clip-path="url(#p03f4918547)" style="fill: #6ce5e8; stroke: #6ce5e8; stroke-linejoin: miter"/>
   </g>
   <g id="patch_13">
    <path d="M 354.363429 49.654286 
L 363.929143 49.654286 
L 363.929143 44.871429 
L 354.363429 44.871429 
z
" clip-path="url(#p03f4918547)" style="fill: #41b8d5; stroke: #41b8d5; stroke-linejoin: miter"/>
   </g>
   <g id="patch_14">
    <path d="M 363.929143 49.654286 
L 368.712 49.654286 
L 368.712 44.871429 
L 363.929143 44.871429 
z
" clip-path="url(#p03f4918547)" style="fill: #2d8bba; stroke: #2d8bba; stroke-linejoin: miter"/>
   </g>
   <g id="patch_15">
    <path d="M 345.754286 40.088571 
L 358.668 40.088571 
L 358.668 35.305714 
L 345.754286 35.305714 
z
" clip-path="url(#p03f4918547)" style="fill: #6ce5e8; stroke: #6ce5e8; stroke-linejoin: miter"/>
   </g>
   <g id="patch_16">
    <path d="M 358.668 40.088571 
L 368.233714 40.088571 
L 368.233714 35.305714 
L 358.668 35.305714 
z
" clip-path="url(#p03f4918547)" style="fill: #41b8d5; stroke: #41b8d5; stroke-linejoin: miter"/>
   </g>
   <g id="patch_17">
    <path d="M 368.233714 40.088571 
L 375.408 40.088571 
L 375.408 35.305714 
L 368.233714 35.305714 
z
" clip-path="url(#p03f4918547)" style="fill: #2d8bba; stroke: #2d8bba; stroke-linejoin: miter"/>
   </g>
   <g id="patch_18">
    <path d="M 345.754286 30.522857 
L 362.494286 30.522857 
L 362.494286 25.74 
L 345.754286 25.74 
z
" clip-path="url(#p03f4918547)" style="fill: #6ce5e8; stroke: #6ce5e8; stroke-linejoin: miter"/>
   </g>
   <g id="patch_19">
    <path d="M 362.494286 30.522857 
L 374.451429 30.522857 
L 374.451429 25.74 
L 362.494286 25.74 
z
" clip-path="url(#p03f4918547)" style="fill: #41b8d5; stroke: #41b8d5; stroke-linejoin: miter"/>
   </g>
   <g id="patch_20">
    <path d="M 374.451429 30.522857 
L 379.234286 30.522857 
L 379.234286 25.74 
L 374.451429 25.74 
z
" clip-path="url(#p03f4918547)" style="fill: #2d8bba; stroke: #2d8bba; stroke-linejoin: miter"/>
   </g>
  </g>
  <g id="axes_7">
   <g id="patch_21">
    <path d="M 54 126.874286 
L 101.828571 126.874286 
L 101.828571 79.045714 
L 54 79.045714 
z
" clip-path="url(#p97458d46e1)" style="fill: #00b796; stroke: #00b796; stroke-linejoin: miter"/>
   </g>
   <g id="text_5">
    <!-- G -->
    <g style="fill: #ecf791" transform="translate(66.522879 113.368616) scale(0.35 -0.35)">
     <defs>
      <path id="Kanit-Bold-47" d="M 2413 -64 
Q 1312 -64 736 477 
Q 160 1018 160 2022 
Q 160 3059 755 3622 
Q 1350 4186 2496 4186 
Q 2880 4186 3190 4141 
Q 3501 4096 3776 4006 
L 3776 2976 
Q 3494 3085 3193 3123 
Q 2893 3162 2579 3162 
Q 1984 3162 1686 2893 
Q 1389 2624 1389 2022 
Q 1389 1459 1648 1209 
Q 1907 960 2413 960 
Q 2579 960 2726 982 
Q 2874 1005 3002 1043 
L 3002 1645 
L 2182 1645 
L 2182 2387 
L 4006 2387 
L 4006 314 
Q 3770 166 3376 51 
Q 2982 -64 2413 -64 
z
" transform="scale(0.015625)"/>
     </defs>
     <use xlink:href="#Kanit-Bold-47"/>
    </g>
   </g>
  </g>
  <g id="axes_8">
   <g id="patch_22">
    <path d="M 111.394286 126.874286 
L 159.222857 126.874286 
L 159.222857 79.045714 
L 111.394286 79.045714 
z
" clip-path="url(#p4d58bd1505)" style="fill: #00b796; stroke: #00b796; stroke-linejoin: miter"/>
   </g>
   <g id="text_6">
    <!-- R -->
    <g style="fill: #ecf791" transform="translate(124.196071 113.368616) scale(0.35 -0.35)">
     <defs>
      <path id="Kanit-Bold-52" d="M 288 0 
L 288 4122 
L 2432 4122 
Q 2938 4122 3261 3936 
Q 3584 3750 3744 3420 
Q 3904 3091 3904 2656 
Q 3904 2240 3696 1923 
Q 3488 1606 3142 1440 
Q 3213 1382 3264 1302 
Q 3315 1222 3379 1082 
L 3853 0 
L 2598 0 
L 2163 992 
Q 2112 1107 2038 1155 
Q 1965 1203 1830 1203 
L 1491 1203 
L 1491 0 
L 288 0 
z
M 1491 2125 
L 2125 2125 
Q 2387 2125 2531 2262 
Q 2675 2400 2675 2656 
Q 2675 3200 2163 3200 
L 1491 3200 
L 1491 2125 
z
" transform="scale(0.015625)"/>
     </defs>
     <use xlink:href="#Kanit-Bold-52"/>
    </g>
   </g>
  </g>
  <g id="axes_9">
   <g id="patch_23">
    <path d="M 168.788571 126.874286 
L 216.617143 126.874286 
L 216.617143 79.045714 
L 168.788571 79.045714 
z
" clip-path="url(#pc9c1ec0919)" style="fill: #00b796; stroke: #00b796; stroke-linejoin: miter"/>
   </g>
   <g id="text_7">
    <!-- A -->
    <g style="fill: #ecf791" transform="translate(179.700904 113.368616) scale(0.35 -0.35)">
     <use xlink:href="#Kanit-Bold-41"/>
    </g>
   </g>
  </g>
  <g id="axes_10">
   <g id="patch_24">
    <path d="M 226.182857 126.874286 
L 274.011429 126.874286 
L 274.011429 79.045714 
L 226.182857 79.045714 
z
" clip-path="url(#p0c3b12818d)" style="fill: #00b796; stroke: #00b796; stroke-linejoin: miter"/>
   </g>
   <g id="text_8">
    <!-- P -->
    <g style="fill: #ecf791" transform="translate(239.351049 113.368616) scale(0.35 -0.35)">
     <defs>
      <path id="Kanit-Bold-50" d="M 288 0 
L 288 4122 
L 2413 4122 
Q 2918 4122 3248 3920 
Q 3578 3718 3738 3372 
Q 3898 3027 3898 2605 
Q 3898 2170 3712 1830 
Q 3526 1491 3187 1299 
Q 2848 1107 2387 1107 
L 1491 1107 
L 1491 0 
L 288 0 
z
M 1491 2029 
L 2112 2029 
Q 2394 2029 2531 2189 
Q 2669 2349 2669 2605 
Q 2669 2880 2541 3040 
Q 2413 3200 2144 3200 
L 1491 3200 
L 1491 2029 
z
" transform="scale(0.015625)"/>
     </defs>
     <use xlink:href="#Kanit-Bold-50"/>
    </g>
   </g>
  </g>
  <g id="axes_11">
   <g id="patch_25">
    <path d="M 283.577143 126.874286 
L 331.405714 126.874286 
L 331.405714 79.045714 
L 283.577143 79.045714 
z
" clip-path="url(#p18ed8dca6f)" style="fill: #00b796; stroke: #00b796; stroke-linejoin: miter"/>
   </g>
   <g id="text_9">
    <!-- H -->
    <g style="fill: #ecf791" transform="translate(295.451975 113.368616) scale(0.35 -0.35)">
     <use xlink:href="#Kanit-Bold-48"/>
    </g>
   </g>
  </g>
  <g id="axes_12">
   <g id="patch_26">
    <path d="M 340.971429 126.874286 
L 388.8 126.874286 
L 388.8 79.045714 
L 340.971429 79.045714 
z
" clip-path="url(#p32afa19b59)" style="fill: #00b796; stroke: #00b796; stroke-linejoin: miter"/>
   </g>
   <g id="text_10">
    <!-- Y -->
    <g style="fill: #ecf791" transform="translate(352.600167 113.368616) scale(0.35 -0.35)">
     <defs>
      <path id="Kanit-Bold-59" d="M 1645 0 
L 1645 1510 
L 160 4122 
L 1414 4122 
L 2246 2566 
L 3078 4122 
L 4333 4122 
L 2848 1510 
L 2848 0 
L 1645 0 
z
" transform="scale(0.015625)"/>
     </defs>
     <use xlink:href="#Kanit-Bold-59"/>
    </g>
   </g>
  </g>
 </g>
 <defs>
  <clipPath id="p8b3a726df0">
   <rect x="54" y="18.565714" width="47.828571" height="47.828571"/>
  </clipPath>
  <clipPath id="p86ee10d764">
   <rect x="111.394286" y="18.565714" width="47.828571" height="47.828571"/>
  </clipPath>
  <clipPath id="p052f9a2b79">
   <rect x="168.788571" y="18.565714" width="47.828571" height="47.828571"/>
  </clipPath>
  <clipPath id="p1694f94e2f">
   <rect x="226.182857" y="18.565714" width="47.828571" height="47.828571"/>
  </clipPath>
  <clipPath id="p1af6384ac0">
   <rect x="283.577143" y="18.565714" width="47.828571" height="47.828571"/>
  </clipPath>
  <clipPath id="p03f4918547">
   <rect x="340.971429" y="18.565714" width="47.828571" height="47.828571"/>
  </clipPath>
  <clipPath id="p97458d46e1">
   <rect x="54" y="79.045714" width="47.828571" height="47.828571"/>
  </clipPath>
  <clipPath id="p4d58bd1505">
   <rect x="111.394286" y="79.045714" width="47.828571" height="47.828571"/>
  </clipPath>
  <clipPath id="pc9c1ec0919">
   <rect x="168.788571" y="79.045714" width="47.828571" height="47.828571"/>
  </clipPath>
  <clipPath id="p0c3b12818d">
   <rect x="226.182857" y="79.045714" width="47.828571" height="47.828571"/>
  </clipPath>
  <clipPath id="p18ed8dca6f">
   <rect x="283.577143" y="79.045714" width="47.828571" height="47.828571"/>
  </clipPath>
  <clipPath id="p32afa19b59">
   <rect x="340.971429" y="79.045714" width="47.828571" height="47.828571"/>
  </clipPath>
 </defs>
</svg>
