<svg width="346" height="346" viewBox="0 0 346 346" fill="none" xmlns="http://www.w3.org/2000/svg">
<rect x="63.4003" y="88.1221" width="59.5831" height="57.4165" transform="rotate(-25 63.4003 88.1221)" fill="#EF7C6B"/>
<rect x="142.606" y="257.978" width="59.5831" height="61.7499" transform="rotate(-25 142.606 257.978)" fill="#57B77E"/>
<rect x="58.7793" y="221.76" width="59.5831" height="58.4998" transform="rotate(-115 58.7793 221.76)" fill="#8E58E5"/>
<rect x="229.619" y="142.095" width="59.5831" height="60.6665" transform="rotate(-115 229.619 142.095)" fill="#0098FF"/>
<rect x="86.7072" y="281.652" width="57.4165" height="63.9165" transform="rotate(-115 86.7072 281.652)" fill="#6526C9"/>
<rect x="255.583" y="202.906" width="57.4165" height="62.8332" transform="rotate(-115 255.583 202.906)" fill="#5EB9F5"/>
<rect x="127.218" y="58.3638" width="55.2498" height="54.1665" transform="rotate(-25 127.218 58.3638)" fill="#C84D28"/>
<rect x="205.443" y="228.677" width="56.3332" height="61.7499" transform="rotate(-25 205.443 228.677)" fill="#55C458"/>
<mask id="path-9-inside-1_38_478" fill="white">
<path fill-rule="evenodd" clip-rule="evenodd" d="M182.073 33.8065C180.206 29.8022 175.446 28.0698 171.441 29.937L126.883 50.7147C121.878 53.0488 119.712 58.9986 122.046 64.004L168.534 163.697C170.868 168.703 176.818 170.868 181.823 168.534L281.517 122.046C286.522 119.712 288.688 113.763 286.354 108.757L265.575 64.1981C263.708 60.1938 258.948 58.4614 254.944 60.3286L214.31 79.2767C209.304 81.6108 203.354 79.4452 201.02 74.4398L182.073 33.8065Z"/>
</mask>
<path d="M126.883 50.7147L123.502 43.4643L126.883 50.7147ZM130.264 57.9652L174.822 37.1875L168.06 22.6865L123.502 43.4643L130.264 57.9652ZM129.297 60.6231C128.83 59.622 129.263 58.432 130.264 57.9652L123.502 43.4643C114.493 47.6656 110.595 58.3752 114.796 67.3849L129.297 60.6231ZM175.785 160.316L129.297 60.6231L114.796 67.3849L161.284 167.078L175.785 160.316ZM178.443 161.284C177.441 161.75 176.251 161.317 175.785 160.316L161.284 167.078C165.485 176.088 176.195 179.986 185.204 175.785L178.443 161.284ZM278.136 114.796L178.443 161.284L185.204 175.785L284.898 129.297L278.136 114.796ZM279.103 112.138C279.57 113.139 279.137 114.329 278.136 114.796L284.898 129.297C293.907 125.096 297.805 114.386 293.604 105.376L279.103 112.138ZM258.325 67.5791L279.103 112.138L293.604 105.376L272.826 60.8172L258.325 67.5791ZM251.563 53.0782L210.929 72.0263L217.691 86.5272L258.325 67.5791L251.563 53.0782ZM210.929 72.0263C209.928 72.4931 208.738 72.06 208.271 71.0589L193.77 77.8208C197.971 86.8305 208.681 90.7285 217.691 86.5272L210.929 72.0263ZM208.271 71.0589L189.323 30.4256L174.822 37.1875L193.77 77.8208L208.271 71.0589ZM272.826 60.8172C269.091 52.8086 259.572 49.3437 251.563 53.0782L258.325 67.5791L258.325 67.5791L272.826 60.8172ZM174.822 37.1875L174.822 37.1875L189.323 30.4256C185.589 22.417 176.069 18.9521 168.06 22.6865L174.822 37.1875Z" fill="black" mask="url(#path-9-inside-1_38_478)"/>
<mask id="path-11-inside-2_38_478" fill="white">
<path fill-rule="evenodd" clip-rule="evenodd" d="M33.8057 163.447C29.8014 165.314 28.0689 170.074 29.9362 174.078L50.714 218.637C53.0481 223.642 58.9979 225.808 64.0033 223.474L163.697 176.986C168.702 174.652 170.867 168.702 168.533 163.697L122.046 64.0033C119.712 58.9979 113.762 56.8323 108.756 59.1664L64.1964 79.9451C60.192 81.8123 58.4596 86.5722 60.3268 90.5765L79.2748 131.211C81.6089 136.216 79.4434 142.166 74.438 144.5L33.8057 163.447Z"/>
</mask>
<path d="M108.756 59.1664L112.137 66.4168L108.756 59.1664ZM79.2748 131.211L72.0244 134.592L79.2748 131.211ZM74.438 144.5L77.8189 151.75L74.438 144.5ZM64.1964 79.9451L60.8154 72.6946L64.1964 79.9451ZM60.3268 90.5765L67.5773 87.1955L60.3268 90.5765ZM33.8057 163.447L37.1866 170.697L33.8057 163.447ZM57.9645 215.256L37.1866 170.697L22.6857 177.459L43.4635 222.018L57.9645 215.256ZM60.6223 216.223C59.6212 216.69 58.4313 216.257 57.9645 215.256L43.4635 222.018C47.6648 231.027 58.3745 234.925 67.3842 230.724L60.6223 216.223ZM160.316 169.735L60.6223 216.223L67.3842 230.724L167.077 184.236L160.316 169.735ZM161.283 167.077C161.75 168.079 161.317 169.269 160.316 169.735L167.077 184.236C176.087 180.035 179.985 169.325 175.784 160.316L161.283 167.077ZM114.795 67.3842L161.283 167.077L175.784 160.316L129.296 60.6223L114.795 67.3842ZM112.137 66.4168C113.138 65.95 114.328 66.3831 114.795 67.3842L129.296 60.6223C125.095 51.6126 114.385 47.7146 105.375 51.9159L112.137 66.4168ZM67.5773 87.1955L112.137 66.4168L105.375 51.9159L60.8154 72.6946L67.5773 87.1955ZM53.0764 93.9574L72.0244 134.592L86.5253 127.83L67.5773 87.1955L53.0764 93.9574ZM72.0244 134.592C72.4912 135.593 72.0581 136.783 71.057 137.249L77.8189 151.75C86.8286 147.549 90.7266 136.839 86.5253 127.83L72.0244 134.592ZM71.057 137.249L30.4247 156.197L37.1866 170.697L77.8189 151.75L71.057 137.249ZM60.8154 72.6946C52.8068 76.4291 49.3419 85.9488 53.0764 93.9574L67.5773 87.1955L67.5773 87.1955L60.8154 72.6946ZM37.1866 170.697L37.1866 170.697L30.4247 156.197C22.4161 159.931 18.9512 169.451 22.6857 177.459L37.1866 170.697Z" fill="black" mask="url(#path-11-inside-2_38_478)"/>
<mask id="path-13-inside-3_38_478" fill="white">
<path fill-rule="evenodd" clip-rule="evenodd" d="M163.447 311.715C165.314 315.72 170.074 317.452 174.078 315.585L218.637 294.807C223.643 292.473 225.808 286.523 223.474 281.517L176.987 181.824C174.652 176.819 168.703 174.653 163.697 176.987L64.004 223.475C58.9986 225.809 56.8331 231.759 59.1671 236.764L79.9448 281.322C81.812 285.326 86.5719 287.059 90.5762 285.192L131.21 266.244C136.215 263.91 142.165 266.075 144.499 271.081L163.447 311.715Z"/>
</mask>
<path d="M218.637 294.807L222.018 302.057L218.637 294.807ZM131.21 266.244L134.591 273.494L131.21 266.244ZM90.5762 285.192L87.1952 277.941L90.5762 285.192ZM215.256 287.556L170.698 308.334L177.459 322.835L222.018 302.057L215.256 287.556ZM216.224 284.898C216.691 285.9 216.257 287.089 215.256 287.556L222.018 302.057C231.028 297.856 234.926 287.146 230.725 278.137L216.224 284.898ZM169.736 185.205L216.224 284.898L230.725 278.137L184.237 178.443L169.736 185.205ZM167.078 184.238C168.079 183.771 169.269 184.204 169.736 185.205L184.237 178.443C180.036 169.434 169.326 165.536 160.316 169.737L167.078 184.238ZM67.385 230.726L167.078 184.238L160.316 169.737L60.6231 216.225L67.385 230.726ZM66.4176 233.383C65.9508 232.382 66.3839 231.192 67.385 230.726L60.6231 216.225C51.6133 220.426 47.7154 231.136 51.9167 240.145L66.4176 233.383ZM87.1952 277.941L66.4176 233.383L51.9167 240.145L72.6943 284.703L87.1952 277.941ZM93.9571 292.442L134.591 273.494L127.829 258.994L87.1952 277.941L93.9571 292.442ZM134.591 273.494C135.592 273.028 136.782 273.461 137.248 274.462L151.749 267.7C147.548 258.69 136.838 254.792 127.829 258.994L134.591 273.494ZM137.248 274.462L156.197 315.096L170.698 308.334L151.749 267.7L137.248 274.462ZM72.6943 284.703C76.4288 292.712 85.9485 296.177 93.9571 292.442L87.1952 277.941L87.1952 277.941L72.6943 284.703ZM170.698 308.334L170.698 308.334L156.197 315.096C159.931 323.105 169.451 326.57 177.459 322.835L170.698 308.334Z" fill="black" mask="url(#path-13-inside-3_38_478)"/>
<mask id="path-15-inside-4_38_478" fill="white">
<path fill-rule="evenodd" clip-rule="evenodd" d="M311.714 182.073C315.718 180.206 317.451 175.446 315.583 171.442L294.805 126.883C292.471 121.878 286.521 119.712 281.516 122.046L181.823 168.534C176.817 170.868 174.652 176.818 176.986 181.823L223.474 281.517C225.808 286.522 231.757 288.688 236.763 286.354L281.324 265.575C285.328 263.707 287.061 258.947 285.193 254.943L266.245 214.309C263.911 209.304 266.077 203.354 271.082 201.02L311.714 182.073Z"/>
</mask>
<path d="M281.516 122.046L278.135 114.796L281.516 122.046ZM181.823 168.534L185.204 175.785L181.823 168.534ZM236.763 286.354L233.382 279.103L236.763 286.354ZM271.082 201.02L274.463 208.271L271.082 201.02ZM281.324 265.575L277.943 258.324L281.324 265.575ZM311.714 182.073L308.333 174.823L311.714 182.073ZM287.555 130.264L308.333 174.823L322.834 168.061L302.056 123.502L287.555 130.264ZM284.897 129.297C285.898 128.83 287.088 129.263 287.555 130.264L302.056 123.502C297.854 114.493 287.145 110.595 278.135 114.796L284.897 129.297ZM185.204 175.785L284.897 129.297L278.135 114.796L178.442 161.284L185.204 175.785ZM184.236 178.443C183.77 177.441 184.203 176.251 185.204 175.785L178.442 161.284C169.432 165.485 165.534 176.195 169.735 185.204L184.236 178.443ZM230.724 278.136L184.236 178.443L169.735 185.204L216.223 284.898L230.724 278.136ZM233.382 279.103C232.381 279.57 231.191 279.137 230.724 278.136L216.223 284.898C220.424 293.907 231.134 297.805 240.144 293.604L233.382 279.103ZM277.943 258.324L233.382 279.103L240.144 293.604L284.705 272.825L277.943 258.324ZM292.444 251.562L273.496 210.928L258.995 217.69L277.943 258.324L292.444 251.562ZM273.496 210.928C273.029 209.927 273.462 208.737 274.463 208.271L267.701 193.77C258.692 197.971 254.794 208.681 258.995 217.69L273.496 210.928ZM274.463 208.271L315.095 189.324L308.333 174.823L267.701 193.77L274.463 208.271ZM284.705 272.825C292.713 269.091 296.178 259.571 292.444 251.562L277.943 258.324L277.943 258.324L284.705 272.825ZM308.333 174.823L308.333 174.823L315.095 189.324C323.103 185.589 326.568 176.07 322.834 168.061L308.333 174.823Z" fill="black" mask="url(#path-15-inside-4_38_478)"/>
<rect x="83.2651" y="140.185" width="133.666" height="133.666" rx="14" transform="rotate(-25 83.2651 140.185)" fill="black" stroke="black" stroke-width="8"/>
</svg>
